ExploreSansMonoVariable_Black Condensed.ufo
<glyph name="exclam" format="2">
  <advance width="450"/>
  <unicode hex="0021"/>
  <outline>
    <contour>
      <point x="133" y="715" type="line"/>
      <point x="323" y="715" type="line"/>
      <point x="296" y="243" type="line"/>
      <point x="154" y="243" type="line"/>
    </contour>
    <contour>
      <point x="225" y="197" type="curve" smooth="yes"/>
      <point x="281" y="197"/>
      <point x="327" y="150"/>
      <point x="327" y="94" type="curve" smooth="yes"/>
      <point x="327" y="38"/>
      <point x="281" y="-8"/>
      <point x="225" y="-8" type="curve" smooth="yes"/>
      <point x="169" y="-8"/>
      <point x="123" y="38"/>
      <point x="123" y="94" type="curve" smooth="yes"/>
      <point x="123" y="150"/>
      <point x="169" y="197"/>
    </contour>
  </outline>
</glyph>
<glyph name="quotedbl" format="2">
  <advance width="450"/>
  <unicode hex="0022"/>
  <outline>
    <contour>
      <point x="88" y="772" type="line"/>
      <point x="267" y="772" type="line"/>
      <point x="247" y="434" type="line"/>
      <point x="108" y="434" type="line"/>
    </contour>
    <contour>
      <point x="333" y="772" type="line"/>
      <point x="512" y="772" type="line"/>
      <point x="492" y="434" type="line"/>
      <point x="353" y="434" type="line"/>
    </contour>
  </outline>
</glyph>
<glyph name="ampersand" format="2">
  <advance width="450"/>
  <unicode hex="0026"/>
  <outline>
    <contour>
      <point x="239" y="716" type="curve" smooth="yes"/>
      <point x="285" y="716"/>
      <point x="320" y="710"/>
      <point x="368" y="686" type="curve"/>
      <point x="315" y="569" type="line"/>
      <point x="299" y="577"/>
      <point x="289" y="581"/>
      <point x="270" y="581" type="curve" smooth="yes"/>
      <point x="252" y="581"/>
      <point x="241" y="569"/>
      <point x="241" y="552" type="curve" smooth="yes"/>
      <point x="241" y="548"/>
      <point x="241" y="533"/>
      <point x="241" y="533" type="curve" smooth="yes"/>
      <point x="241" y="511"/>
      <point x="243" y="492"/>
      <point x="252" y="471" type="curve" smooth="yes"/>
      <point x="459" y="0" type="line"/>
      <point x="309" y="0" type="line"/>
      <point x="135" y="378" type="line" smooth="yes"/>
      <point x="99" y="455"/>
      <point x="94" y="463"/>
      <point x="94" y="528" type="curve" smooth="yes"/>
      <point x="94" y="544"/>
      <point x="94" y="568"/>
      <point x="94" y="592" type="curve" smooth="yes"/>
      <point x="94" y="657"/>
      <point x="138" y="716"/>
    </contour>
    <contour>
      <point x="140" y="447" type="line"/>
      <point x="185" y="334" type="line"/>
      <point x="178" y="334" type="line" smooth="yes"/>
      <point x="157" y="334"/>
      <point x="152" y="320"/>
      <point x="152" y="299" type="curve" smooth="yes"/>
      <point x="152" y="232"/>
      <point x="152" y="257"/>
      <point x="152" y="172" type="curve" smooth="yes"/>
      <point x="152" y="152"/>
      <point x="158" y="141"/>
      <point x="181" y="141" type="curve" smooth="yes"/>
      <point x="212" y="141"/>
      <point x="218" y="166"/>
      <point x="233" y="215" type="curve" smooth="yes"/>
      <point x="299" y="431" type="line"/>
      <point x="443" y="415" type="line"/>
      <point x="443" y="293" type="line"/>
      <point x="392" y="299" type="line"/>
      <point x="356" y="153" type="line" smooth="yes"/>
      <point x="330" y="47"/>
      <point x="264" y="-8"/>
      <point x="162" y="-8" type="curve" smooth="yes"/>
      <point x="59" y="-8"/>
      <point x="5" y="46"/>
      <point x="5" y="137" type="curve" smooth="yes"/>
      <point x="5" y="222"/>
      <point x="5" y="250"/>
      <point x="5" y="317" type="curve" smooth="yes"/>
      <point x="5" y="404"/>
      <point x="67" y="447"/>
      <point x="130" y="447" type="curve" smooth="yes"/>
    </contour>
  </outline>
</glyph>
<glyph name="parenleft" format="2">
  <advance width="450"/>
  <unicode hex="0028"/>
  <outline>
    <contour>
      <point x="235" y="800" type="curve"/>
      <point x="416" y="800" type="line"/>
      <point x="360" y="734"/>
      <point x="259" y="600"/>
      <point x="259" y="371" type="curve" smooth="yes"/>
      <point x="259" y="141"/>
      <point x="352" y="-3"/>
      <point x="416" y="-64" type="curve"/>
      <point x="235" y="-64" type="line"/>
      <point x="142" y="27"/>
      <point x="83" y="176"/>
      <point x="83" y="371" type="curve" smooth="yes"/>
      <point x="83" y="548"/>
      <point x="149" y="715"/>
    </contour>
  </outline>
</glyph>
<glyph name="parenright" format="2">
  <advance width="450"/>
  <unicode hex="0029"/>
  <outline>
    <contour>
      <point x="34" y="800" type="curve"/>
      <point x="215" y="800" type="line"/>
      <point x="301" y="715"/>
      <point x="367" y="548"/>
      <point x="367" y="371" type="curve" smooth="yes"/>
      <point x="367" y="176"/>
      <point x="308" y="27"/>
      <point x="215" y="-64" type="curve"/>
      <point x="34" y="-64" type="line"/>
      <point x="98" y="-3"/>
      <point x="191" y="141"/>
      <point x="191" y="371" type="curve" smooth="yes"/>
      <point x="191" y="600"/>
      <point x="90" y="734"/>
    </contour>
  </outline>
</glyph>
<glyph name="asterisk" format="2">
  <advance width="450"/>
  <unicode hex="002A"/>
  <outline>
    <contour>
      <point x="159" y="806" type="line"/>
      <point x="288" y="806" type="line"/>
      <point x="288" y="696" type="line"/>
      <point x="280" y="667" type="line"/>
      <point x="308" y="682" type="line"/>
      <point x="399" y="713" type="line"/>
      <point x="437" y="601" type="line"/>
      <point x="323" y="558" type="line"/>
      <point x="293" y="558" type="line"/>
      <point x="329" y="538" type="line"/>
      <point x="389" y="431" type="line"/>
      <point x="276" y="372" type="line"/>
      <point x="232" y="470" type="line"/>
      <point x="223" y="496" type="line"/>
      <point x="214" y="470" type="line"/>
      <point x="170" y="372" type="line"/>
      <point x="57" y="431" type="line"/>
      <point x="118" y="539" type="line"/>
      <point x="150" y="559" type="line"/>
      <point x="119" y="559" type="line"/>
      <point x="10" y="601" type="line"/>
      <point x="47" y="713" type="line"/>
      <point x="142" y="681" type="line"/>
      <point x="166" y="667" type="line"/>
      <point x="159" y="696" type="line"/>
    </contour>
  </outline>
</glyph>
<glyph name="comma" format="2">
  <advance width="450"/>
  <unicode hex="002C"/>
  <outline>
    <contour>
      <point x="138" y="11" type="line"/>
      <point x="138" y="19" type="line"/>
      <point x="40" y="32" type="line"/>
      <point x="40" y="166" type="line"/>
      <point x="305" y="137" type="line"/>
      <point x="305" y="27" type="line"/>
      <point x="236" y="-143" type="line"/>
      <point x="77" y="-143" type="line"/>
    </contour>
  </outline>
</glyph>
<glyph name="zero" format="2">
  <advance width="450"/>
  <unicode hex="0030"/>
  <outline>
    <contour>
      <point x="223" y="556" type="curve" smooth="yes"/>
      <point x="207" y="556"/>
      <point x="198" y="545"/>
      <point x="198" y="528" type="curve" smooth="yes"/>
      <point x="198" y="357"/>
      <point x="198" y="345"/>
      <point x="198" y="177" type="curve" smooth="yes"/>
      <point x="198" y="163"/>
      <point x="203" y="153"/>
      <point x="225" y="153" type="curve" smooth="yes"/>
      <point x="247" y="153"/>
      <point x="252" y="165"/>
      <point x="252" y="178" type="curve" smooth="yes"/>
      <point x="252" y="347"/>
      <point x="252" y="365"/>
      <point x="252" y="528" type="curve" smooth="yes"/>
      <point x="252" y="545"/>
      <point x="241" y="556"/>
    </contour>
    <contour>
      <point x="226" y="716" type="curve" smooth="yes"/>
      <point x="356" y="716"/>
      <point x="444" y="673"/>
      <point x="444" y="531" type="curve" smooth="yes"/>
      <point x="444" y="354"/>
      <point x="444" y="338"/>
      <point x="444" y="169" type="curve" smooth="yes"/>
      <point x="444" y="37"/>
      <point x="360" y="-7"/>
      <point x="226" y="-7" type="curve" smooth="yes"/>
      <point x="93" y="-7"/>
      <point x="6" y="37"/>
      <point x="6" y="171" type="curve" smooth="yes"/>
      <point x="6" y="340"/>
      <point x="6" y="356"/>
      <point x="6" y="533" type="curve" smooth="yes"/>
      <point x="6" y="674"/>
      <point x="95" y="716"/>
    </contour>
    <contour>
      <point x="294" y="359" type="curve" smooth="yes"/>
      <point x="294" y="398"/>
      <point x="262" y="429"/>
      <point x="224" y="429" type="curve" smooth="yes"/>
      <point x="185" y="429"/>
      <point x="154" y="398"/>
      <point x="154" y="359" type="curve" smooth="yes"/>
      <point x="154" y="320"/>
      <point x="185" y="289"/>
      <point x="224" y="289" type="curve" smooth="yes"/>
      <point x="262" y="289"/>
      <point x="294" y="320"/>
    </contour>
  </outline>
</glyph>
<glyph name="one" format="2">
  <advance width="450"/>
  <unicode hex="0031"/>
  <outline>
    <contour>
      <point x="194" y="708" type="line"/>
      <point x="322" y="708" type="line"/>
      <point x="322" y="160" type="line"/>
      <point x="424" y="160" type="line"/>
      <point x="424" y="0" type="line"/>
      <point x="23" y="0" type="line"/>
      <point x="23" y="160" type="line"/>
      <point x="130" y="160" type="line"/>
      <point x="130" y="516" type="line"/>
      <point x="20" y="462" type="line"/>
      <point x="20" y="632" type="line"/>
    </contour>
  </outline>
</glyph>
<glyph name="two" format="2">
  <advance width="450"/>
  <unicode hex="0032"/>
  <outline>
    <contour>
      <point x="10" y="644" type="line"/>
      <point x="58" y="682"/>
      <point x="114" y="716"/>
      <point x="206" y="716" type="curve" smooth="yes"/>
      <point x="340" y="716"/>
      <point x="431" y="652"/>
      <point x="431" y="525" type="curve" smooth="yes"/>
      <point x="431" y="524"/>
      <point x="431" y="487"/>
      <point x="431" y="502" type="curve" smooth="yes"/>
      <point x="431" y="401"/>
      <point x="360" y="316"/>
      <point x="296" y="235" type="curve" smooth="yes"/>
      <point x="269" y="201"/>
      <point x="235" y="159"/>
      <point x="235" y="159" type="curve"/>
      <point x="426" y="159" type="line"/>
      <point x="425" y="-1" type="line"/>
      <point x="18" y="-1" type="line"/>
      <point x="18" y="129" type="line"/>
      <point x="187" y="354" type="line" smooth="yes"/>
      <point x="234" y="416"/>
      <point x="242" y="441"/>
      <point x="242" y="472" type="curve" smooth="yes"/>
      <point x="242" y="487"/>
      <point x="242" y="495"/>
      <point x="242" y="495" type="curve" smooth="yes"/>
      <point x="242" y="535"/>
      <point x="214" y="560"/>
      <point x="170" y="560" type="curve" smooth="yes"/>
      <point x="122" y="560"/>
      <point x="102" y="536"/>
      <point x="87" y="522" type="curve"/>
    </contour>
  </outline>
</glyph>
<glyph name="three" format="2">
  <advance width="450"/>
  <unicode hex="0033"/>
  <outline>
    <contour>
      <point x="51" y="708" type="line"/>
      <point x="413" y="708" type="line"/>
      <point x="413" y="596" type="line"/>
      <point x="299" y="429" type="line"/>
      <point x="347" y="429"/>
      <point x="434" y="392"/>
      <point x="434" y="274" type="curve" smooth="yes"/>
      <point x="434" y="273"/>
      <point x="434" y="216"/>
      <point x="434" y="191" type="curve" smooth="yes"/>
      <point x="434" y="63"/>
      <point x="365" y="-8"/>
      <point x="208" y="-8" type="curve" smooth="yes"/>
      <point x="133" y="-8"/>
      <point x="65" y="16"/>
      <point x="7" y="63" type="curve"/>
      <point x="88" y="189" type="line"/>
      <point x="112" y="171"/>
      <point x="143" y="144"/>
      <point x="186" y="144" type="curve" smooth="yes"/>
      <point x="225" y="144"/>
      <point x="244" y="162"/>
      <point x="244" y="197" type="curve" smooth="yes"/>
      <point x="244" y="201"/>
      <point x="244" y="250"/>
      <point x="244" y="250" type="curve" smooth="yes"/>
      <point x="244" y="292"/>
      <point x="218" y="310"/>
      <point x="186" y="310" type="curve" smooth="yes"/>
      <point x="129" y="310" type="line"/>
      <point x="115" y="423" type="line"/>
      <point x="205" y="558" type="line"/>
      <point x="51" y="558" type="line"/>
    </contour>
  </outline>
</glyph>
<glyph name="four" format="2">
  <advance width="450"/>
  <unicode hex="0034"/>
  <outline>
    <contour>
      <point x="98" y="708" type="line"/>
      <point x="288" y="708" type="line"/>
      <point x="188" y="283" type="line"/>
      <point x="233" y="283" type="line"/>
      <point x="258" y="418" type="line"/>
      <point x="402" y="418" type="line"/>
      <point x="402" y="283" type="line"/>
      <point x="444" y="283" type="line"/>
      <point x="444" y="123" type="line"/>
      <point x="402" y="123" type="line"/>
      <point x="402" y="0" type="line"/>
      <point x="233" y="0" type="line"/>
      <point x="233" y="123" type="line"/>
      <point x="8" y="123" type="line"/>
      <point x="8" y="283" type="line"/>
    </contour>
  </outline>
</glyph>
<glyph name="five" format="2">
  <advance width="450"/>
  <unicode hex="0035"/>
  <outline>
    <contour>
      <point x="23" y="708" type="line"/>
      <point x="404" y="708" type="line"/>
      <point x="404" y="548" type="line"/>
      <point x="191" y="549" type="line"/>
      <point x="189" y="419" type="line"/>
      <point x="206" y="444"/>
      <point x="223" y="462"/>
      <point x="290" y="462" type="curve" smooth="yes"/>
      <point x="376" y="462"/>
      <point x="434" y="405"/>
      <point x="434" y="302" type="curve" smooth="yes"/>
      <point x="434" y="300"/>
      <point x="434" y="204"/>
      <point x="434" y="204" type="curve" smooth="yes"/>
      <point x="434" y="71"/>
      <point x="351" y="-8"/>
      <point x="207" y="-8" type="curve" smooth="yes"/>
      <point x="70" y="-8"/>
      <point x="21" y="42"/>
      <point x="-10" y="78" type="curve"/>
      <point x="91" y="192" type="line"/>
      <point x="109" y="173"/>
      <point x="133" y="143"/>
      <point x="181" y="143" type="curve" smooth="yes"/>
      <point x="226" y="143"/>
      <point x="242" y="165"/>
      <point x="242" y="203" type="curve" smooth="yes"/>
      <point x="242" y="221"/>
      <point x="242" y="266"/>
      <point x="242" y="279" type="curve" smooth="yes"/>
      <point x="242" y="304"/>
      <point x="228" y="326"/>
      <point x="203" y="326" type="curve" smooth="yes"/>
      <point x="183" y="326"/>
      <point x="171" y="312"/>
      <point x="163" y="297" type="curve"/>
      <point x="19" y="297" type="line"/>
    </contour>
  </outline>
</glyph>
<glyph name="six" format="2">
  <advance width="450"/>
  <unicode hex="0036"/>
  <outline>
    <contour>
      <point x="340" y="719" type="curve"/>
      <point x="379" y="580" type="line"/>
      <point x="273" y="540"/>
      <point x="213" y="490"/>
      <point x="200" y="408" type="curve"/>
      <point x="215" y="436"/>
      <point x="251" y="450"/>
      <point x="306" y="450" type="curve" smooth="yes"/>
      <point x="390" y="450"/>
      <point x="434" y="399"/>
      <point x="434" y="285" type="curve" smooth="yes"/>
      <point x="434" y="248"/>
      <point x="434" y="225"/>
      <point x="434" y="180" type="curve" smooth="yes"/>
      <point x="434" y="67"/>
      <point x="374" y="-8"/>
      <point x="224" y="-8" type="curve" smooth="yes"/>
      <point x="60" y="-8"/>
      <point x="16" y="68"/>
      <point x="16" y="180" type="curve" smooth="yes"/>
      <point x="16" y="198"/>
      <point x="16" y="289"/>
      <point x="16" y="308" type="curve" smooth="yes"/>
      <point x="16" y="548"/>
      <point x="167" y="672"/>
    </contour>
    <contour>
      <point x="223" y="323" type="curve" smooth="yes"/>
      <point x="212" y="323"/>
      <point x="207" y="319"/>
      <point x="203" y="316" type="curve"/>
      <point x="203" y="286"/>
      <point x="203" y="171"/>
      <point x="203" y="171" type="curve" smooth="yes"/>
      <point x="203" y="158"/>
      <point x="210" y="150"/>
      <point x="224" y="150" type="curve" smooth="yes"/>
      <point x="238" y="150"/>
      <point x="245" y="159"/>
      <point x="245" y="171" type="curve" smooth="yes"/>
      <point x="245" y="223"/>
      <point x="245" y="263"/>
      <point x="245" y="300" type="curve" smooth="yes"/>
      <point x="245" y="316"/>
      <point x="235" y="323"/>
    </contour>
  </outline>
</glyph>
<glyph name="seven" format="2">
  <advance width="450"/>
  <unicode hex="0037"/>
  <outline>
    <contour>
      <point x="12" y="710" type="line"/>
      <point x="434" y="710" type="line"/>
      <point x="434" y="550" type="line"/>
      <point x="273" y="2" type="line"/>
      <point x="75" y="2" type="line"/>
      <point x="251" y="550" type="line"/>
      <point x="12" y="550" type="line"/>
    </contour>
  </outline>
</glyph>
<glyph name="eight" format="2">
  <advance width="450"/>
  <unicode hex="0038"/>
  <outline>
    <contour>
      <point x="223" y="716" type="curve" smooth="yes"/>
      <point x="366" y="716"/>
      <point x="430" y="646"/>
      <point x="430" y="559" type="curve" smooth="yes"/>
      <point x="430" y="523"/>
      <point x="430" y="521"/>
      <point x="430" y="488" type="curve" smooth="yes"/>
      <point x="430" y="432"/>
      <point x="406" y="402"/>
      <point x="353" y="371" type="curve"/>
      <point x="417" y="361"/>
      <point x="444" y="308"/>
      <point x="444" y="225" type="curve" smooth="yes"/>
      <point x="444" y="224"/>
      <point x="444" y="189"/>
      <point x="444" y="158" type="curve" smooth="yes"/>
      <point x="444" y="60"/>
      <point x="373" y="-7"/>
      <point x="223" y="-7" type="curve" smooth="yes"/>
      <point x="74" y="-7"/>
      <point x="7" y="60"/>
      <point x="7" y="158" type="curve" smooth="yes"/>
      <point x="7" y="189"/>
      <point x="7" y="224"/>
      <point x="7" y="225" type="curve" smooth="yes"/>
      <point x="7" y="308"/>
      <point x="34" y="362"/>
      <point x="95" y="371" type="curve"/>
      <point x="45" y="402"/>
      <point x="20" y="432"/>
      <point x="20" y="489" type="curve" smooth="yes"/>
      <point x="20" y="521"/>
      <point x="20" y="523"/>
      <point x="20" y="559" type="curve" smooth="yes"/>
      <point x="20" y="646"/>
      <point x="81" y="716"/>
    </contour>
    <contour>
      <point x="225" y="580" type="curve" smooth="yes"/>
      <point x="211" y="580"/>
      <point x="204" y="571"/>
      <point x="204" y="558" type="curve" smooth="yes"/>
      <point x="204" y="523"/>
      <point x="204" y="492"/>
      <point x="204" y="460" type="curve" smooth="yes"/>
      <point x="204" y="444"/>
      <point x="212" y="434"/>
      <point x="225" y="434" type="curve" smooth="yes"/>
      <point x="239" y="434"/>
      <point x="246" y="446"/>
      <point x="246" y="460" type="curve" smooth="yes"/>
      <point x="246" y="493"/>
      <point x="246" y="522"/>
      <point x="246" y="559" type="curve" smooth="yes"/>
      <point x="246" y="571"/>
      <point x="239" y="580"/>
    </contour>
    <contour>
      <point x="225" y="297" type="curve" smooth="yes"/>
      <point x="206" y="297"/>
      <point x="199" y="281"/>
      <point x="199" y="257" type="curve" smooth="yes"/>
      <point x="199" y="256"/>
      <point x="199" y="193"/>
      <point x="199" y="163" type="curve" smooth="yes"/>
      <point x="199" y="145"/>
      <point x="205" y="133"/>
      <point x="225" y="133" type="curve" smooth="yes"/>
      <point x="246" y="133"/>
      <point x="252" y="145"/>
      <point x="252" y="163" type="curve" smooth="yes"/>
      <point x="252" y="193"/>
      <point x="252" y="256"/>
      <point x="252" y="257" type="curve" smooth="yes"/>
      <point x="252" y="281"/>
      <point x="245" y="297"/>
    </contour>
  </outline>
</glyph>
<glyph name="nine" format="2">
  <advance width="450"/>
  <unicode hex="0039"/>
  <outline>
    <contour>
      <point x="60" y="142" type="line"/>
      <point x="130" y="164"/>
      <point x="243" y="219"/>
      <point x="248" y="310" type="curve"/>
      <point x="234" y="283"/>
      <point x="203" y="262"/>
      <point x="134" y="262" type="curve" smooth="yes"/>
      <point x="45" y="262"/>
      <point x="14" y="344"/>
      <point x="14" y="415" type="curve" smooth="yes"/>
      <point x="14" y="466"/>
      <point x="14" y="482"/>
      <point x="14" y="531" type="curve" smooth="yes"/>
      <point x="14" y="646"/>
      <point x="97" y="716"/>
      <point x="229" y="716" type="curve" smooth="yes"/>
      <point x="364" y="716"/>
      <point x="437" y="646"/>
      <point x="437" y="531" type="curve" smooth="yes"/>
      <point x="437" y="423"/>
      <point x="437" y="376"/>
      <point x="437" y="374" type="curve" smooth="yes"/>
      <point x="437" y="126"/>
      <point x="220" y="23"/>
      <point x="105" y="-8" type="curve"/>
    </contour>
    <contour>
      <point x="228" y="556" type="curve" smooth="yes"/>
      <point x="213" y="556"/>
      <point x="206" y="548"/>
      <point x="206" y="529" type="curve" smooth="yes"/>
      <point x="206" y="528"/>
      <point x="206" y="461"/>
      <point x="206" y="409" type="curve" smooth="yes"/>
      <point x="206" y="393"/>
      <point x="214" y="385"/>
      <point x="229" y="385" type="curve" smooth="yes"/>
      <point x="237" y="385"/>
      <point x="246" y="387"/>
      <point x="252" y="392" type="curve"/>
      <point x="252" y="528" type="line"/>
      <point x="252" y="548"/>
      <point x="244" y="556"/>
    </contour>
  </outline>
</glyph>
<glyph name="colon" format="2">
  <advance width="450"/>
  <unicode hex="003A"/>
  <outline>
    <contour>
      <point x="225" y="528" type="curve" smooth="yes"/>
      <point x="281" y="528"/>
      <point x="327" y="494"/>
      <point x="327" y="426" type="curve" smooth="yes"/>
      <point x="327" y="359"/>
      <point x="281" y="324"/>
      <point x="225" y="324" type="curve" smooth="yes"/>
      <point x="169" y="324"/>
      <point x="123" y="359"/>
      <point x="123" y="426" type="curve" smooth="yes"/>
      <point x="123" y="494"/>
      <point x="169" y="528"/>
    </contour>
    <contour>
      <point x="225" y="196" type="curve" smooth="yes"/>
      <point x="281" y="196"/>
      <point x="327" y="162"/>
      <point x="327" y="94" type="curve" smooth="yes"/>
      <point x="327" y="27"/>
      <point x="281" y="-8"/>
      <point x="225" y="-8" type="curve" smooth="yes"/>
      <point x="169" y="-8"/>
      <point x="123" y="27"/>
      <point x="123" y="94" type="curve" smooth="yes"/>
      <point x="123" y="162"/>
      <point x="169" y="196"/>
    </contour>
  </outline>
</glyph>
<glyph name="A" format="2">
  <advance width="450"/>
  <unicode hex="0041"/>
  <anchor x="224" y="881" name="AccentCenter"/>
  <outline>
    <contour>
      <point x="130" y="708" type="line"/>
      <point x="316" y="708" type="line"/>
      <point x="446" y="0" type="line"/>
      <point x="272" y="0" type="line"/>
      <point x="260" y="153" type="line"/>
      <point x="195" y="153" type="line"/>
      <point x="182" y="0" type="line"/>
      <point x="4" y="0" type="line"/>
    </contour>
    <contour>
      <point x="216" y="528" type="line"/>
      <point x="208" y="293" type="line"/>
      <point x="247" y="293" type="line"/>
      <point x="232" y="528" type="line"/>
    </contour>
  </outline>
</glyph>
<glyph name="B" format="2">
  <advance width="450"/>
  <unicode hex="0042"/>
  <outline>
    <contour>
      <point x="20" y="708" type="line"/>
      <point x="253" y="708" type="line" smooth="yes"/>
      <point x="361" y="708"/>
      <point x="425" y="642"/>
      <point x="425" y="550" type="curve" smooth="yes"/>
      <point x="425" y="530"/>
      <point x="428" y="529"/>
      <point x="428" y="507" type="curve" smooth="yes"/>
      <point x="428" y="435"/>
      <point x="408" y="390"/>
      <point x="351" y="373" type="curve"/>
      <point x="414" y="351"/>
      <point x="437" y="311"/>
      <point x="437" y="224" type="curve" smooth="yes"/>
      <point x="437" y="198"/>
      <point x="437" y="209"/>
      <point x="437" y="178" type="curve" smooth="yes"/>
      <point x="437" y="68"/>
      <point x="363" y="0"/>
      <point x="258" y="0" type="curve" smooth="yes"/>
      <point x="20" y="0" type="line"/>
    </contour>
    <contour>
      <point x="200" y="548" type="line"/>
      <point x="200" y="437" type="line"/>
      <point x="217" y="437" type="line" smooth="yes"/>
      <point x="237" y="437"/>
      <point x="245" y="446"/>
      <point x="245" y="470" type="curve" smooth="yes"/>
      <point x="245" y="492"/>
      <point x="245" y="493"/>
      <point x="245" y="513" type="curve" smooth="yes"/>
      <point x="245" y="537"/>
      <point x="235" y="548"/>
      <point x="218" y="548" type="curve" smooth="yes"/>
    </contour>
    <contour>
      <point x="200" y="297" type="line"/>
      <point x="200" y="160" type="line"/>
      <point x="218" y="160" type="line" smooth="yes"/>
      <point x="247" y="160"/>
      <point x="257" y="174"/>
      <point x="257" y="210" type="curve" smooth="yes"/>
      <point x="257" y="241"/>
      <point x="257" y="230"/>
      <point x="257" y="256" type="curve" smooth="yes"/>
      <point x="257" y="280"/>
      <point x="248" y="297"/>
      <point x="218" y="297" type="curve" smooth="yes"/>
    </contour>
  </outline>
</glyph>
<glyph name="C" format="2">
  <advance width="450"/>
  <unicode hex="0043"/>
  <outline>
    <contour>
      <point x="250" y="716" type="curve" smooth="yes"/>
      <point x="313" y="716"/>
      <point x="364" y="706"/>
      <point x="426" y="678" type="curve"/>
      <point x="366" y="543" type="line"/>
      <point x="345" y="554"/>
      <point x="321" y="564"/>
      <point x="282" y="564" type="curve" smooth="yes"/>
      <point x="240" y="564"/>
      <point x="204" y="541"/>
      <point x="204" y="485" type="curve" smooth="yes"/>
      <point x="204" y="484"/>
      <point x="204" y="263"/>
      <point x="204" y="219" type="curve" smooth="yes"/>
      <point x="204" y="165"/>
      <point x="240" y="144"/>
      <point x="282" y="144" type="curve" smooth="yes"/>
      <point x="317" y="144"/>
      <point x="348" y="151"/>
      <point x="386" y="170" type="curve"/>
      <point x="436" y="41" type="line"/>
      <point x="375" y="6"/>
      <point x="310" y="-8"/>
      <point x="252" y="-8" type="curve" smooth="yes"/>
      <point x="112" y="-8"/>
      <point x="12" y="57"/>
      <point x="12" y="220" type="curve" smooth="yes"/>
      <point x="12" y="264"/>
      <point x="12" y="485"/>
      <point x="12" y="486" type="curve" smooth="yes"/>
      <point x="13" y="645"/>
      <point x="128" y="716"/>
    </contour>
  </outline>
</glyph>
<glyph name="D" format="2">
  <advance width="450"/>
  <unicode hex="0044"/>
  <outline>
    <contour>
      <point x="192" y="548" type="line"/>
      <point x="192" y="160" type="line"/>
      <point x="206" y="160" type="line" smooth="yes"/>
      <point x="237" y="160"/>
      <point x="254" y="192"/>
      <point x="254" y="212" type="curve" smooth="yes"/>
      <point x="254" y="327"/>
      <point x="254" y="406"/>
      <point x="254" y="499" type="curve" smooth="yes"/>
      <point x="254" y="536"/>
      <point x="235" y="548"/>
      <point x="206" y="548" type="curve" smooth="yes"/>
    </contour>
    <contour>
      <point x="12" y="708" type="line"/>
      <point x="201" y="708" type="line" smooth="yes"/>
      <point x="367" y="708"/>
      <point x="434" y="612"/>
      <point x="434" y="499" type="curve" smooth="yes"/>
      <point x="434" y="406"/>
      <point x="434" y="327"/>
      <point x="434" y="212" type="curve" smooth="yes"/>
      <point x="434" y="104"/>
      <point x="371" y="0"/>
      <point x="209" y="0" type="curve" smooth="yes"/>
      <point x="12" y="0" type="line"/>
    </contour>
  </outline>
</glyph>
<glyph name="E" format="2">
  <advance width="450"/>
  <unicode hex="0045"/>
  <anchor x="261" y="880" name="AccentCenter"/>
  <outline>
    <contour>
      <point x="16" y="708" type="line"/>
      <point x="414" y="708" type="line"/>
      <point x="414" y="548" type="line"/>
      <point x="191" y="548" type="line"/>
      <point x="191" y="438" type="line"/>
      <point x="358" y="438" type="line"/>
      <point x="358" y="288" type="line"/>
      <point x="191" y="288" type="line"/>
      <point x="191" y="160" type="line"/>
      <point x="428" y="160" type="line"/>
      <point x="428" y="0" type="line"/>
      <point x="16" y="0" type="line"/>
    </contour>
  </outline>
</glyph>
<glyph name="F" format="2">
  <advance width="450"/>
  <unicode hex="0046"/>
  <outline>
    <contour>
      <point x="16" y="708" type="line"/>
      <point x="431" y="708" type="line"/>
      <point x="431" y="543" type="line"/>
      <point x="208" y="543" type="line"/>
      <point x="208" y="425" type="line"/>
      <point x="382" y="425" type="line"/>
      <point x="382" y="275" type="line"/>
      <point x="208" y="275" type="line"/>
      <point x="208" y="0" type="line"/>
      <point x="16" y="0" type="line"/>
    </contour>
  </outline>
</glyph>
<glyph name="G" format="2">
  <advance width="450"/>
  <unicode hex="0047"/>
  <outline>
    <contour>
      <point x="249" y="716" type="curve" smooth="yes"/>
      <point x="326" y="716"/>
      <point x="375" y="695"/>
      <point x="437" y="655" type="curve"/>
      <point x="358" y="522" type="line"/>
      <point x="326" y="547"/>
      <point x="298" y="561"/>
      <point x="266" y="561" type="curve" smooth="yes"/>
      <point x="221" y="561"/>
      <point x="196" y="537"/>
      <point x="196" y="492" type="curve" smooth="yes"/>
      <point x="196" y="399"/>
      <point x="196" y="304"/>
      <point x="196" y="185" type="curve" smooth="yes"/>
      <point x="196" y="156"/>
      <point x="212" y="143"/>
      <point x="240" y="143" type="curve" smooth="yes"/>
      <point x="253" y="143"/>
      <point x="262" y="144"/>
      <point x="270" y="146" type="curve"/>
      <point x="270" y="282" type="line"/>
      <point x="235" y="282" type="line"/>
      <point x="235" y="421" type="line"/>
      <point x="434" y="421" type="line"/>
      <point x="434" y="30" type="line"/>
      <point x="434" y="26"/>
      <point x="356" y="-8"/>
      <point x="248" y="-8" type="curve" smooth="yes"/>
      <point x="35" y="-8"/>
      <point x="17" y="121"/>
      <point x="16" y="205" type="curve" smooth="yes"/>
      <point x="16" y="301"/>
      <point x="16" y="395"/>
      <point x="16" y="488" type="curve" smooth="yes"/>
      <point x="15" y="614"/>
      <point x="66" y="716"/>
    </contour>
  </outline>
</glyph>
<glyph name="H" format="2">
  <advance width="450"/>
  <unicode hex="0048"/>
  <outline>
    <contour>
      <point x="16" y="708" type="line"/>
      <point x="196" y="708" type="line"/>
      <point x="196" y="451" type="line"/>
      <point x="254" y="451" type="line"/>
      <point x="254" y="708" type="line"/>
      <point x="434" y="708" type="line"/>
      <point x="434" y="0" type="line"/>
      <point x="254" y="0" type="line"/>
      <point x="254" y="281" type="line"/>
      <point x="196" y="281" type="line"/>
      <point x="196" y="0" type="line"/>
      <point x="16" y="0" type="line"/>
    </contour>
  </outline>
</glyph>
<glyph name="I" format="2">
  <advance width="450"/>
  <unicode hex="0049"/>
  <anchor x="232" y="876" name="AccentCenter"/>
  <outline>
    <contour>
      <point x="16" y="708" type="line"/>
      <point x="434" y="708" type="line"/>
      <point x="434" y="548" type="line"/>
      <point x="321" y="548" type="line"/>
      <point x="321" y="160" type="line"/>
      <point x="434" y="160" type="line"/>
      <point x="434" y="0" type="line"/>
      <point x="16" y="0" type="line"/>
      <point x="16" y="160" type="line"/>
      <point x="129" y="160" type="line"/>
      <point x="129" y="548" type="line"/>
      <point x="16" y="548" type="line"/>
    </contour>
  </outline>
</glyph>
<glyph name="J" format="2">
  <advance width="450"/>
  <unicode hex="004A"/>
  <outline>
    <contour>
      <point x="98" y="708" type="line"/>
      <point x="434" y="708" type="line"/>
      <point x="434" y="240" type="line" smooth="yes"/>
      <point x="434" y="58"/>
      <point x="338" y="-8"/>
      <point x="184" y="-8" type="curve" smooth="yes"/>
      <point x="80" y="-8"/>
      <point x="22" y="34"/>
      <point x="0" y="49" type="curve"/>
      <point x="71" y="186" type="line"/>
      <point x="96" y="167"/>
      <point x="124" y="150"/>
      <point x="162" y="150" type="curve" smooth="yes"/>
      <point x="232" y="150"/>
      <point x="242" y="191"/>
      <point x="242" y="236" type="curve" smooth="yes"/>
      <point x="242" y="558" type="line"/>
      <point x="98" y="558" type="line"/>
    </contour>
  </outline>
</glyph>
<glyph name="K" format="2">
  <advance width="450"/>
  <unicode hex="004B"/>
  <outline>
    <contour>
      <point x="16" y="708" type="line"/>
      <point x="196" y="708" type="line"/>
      <point x="196" y="459" type="line"/>
      <point x="207" y="459" type="line"/>
      <point x="274" y="708" type="line"/>
      <point x="468" y="708" type="line"/>
      <point x="349" y="360" type="line"/>
      <point x="471" y="0" type="line"/>
      <point x="270" y="0" type="line"/>
      <point x="207" y="261" type="line"/>
      <point x="196" y="261" type="line"/>
      <point x="196" y="0" type="line"/>
      <point x="16" y="0" type="line"/>
    </contour>
  </outline>
</glyph>
<glyph name="L" format="2">
  <advance width="450"/>
  <unicode hex="004C"/>
  <outline>
    <contour>
      <point x="32" y="708" type="line"/>
      <point x="224" y="708" type="line"/>
      <point x="224" y="160" type="line"/>
      <point x="434" y="160" type="line"/>
      <point x="434" y="0" type="line"/>
      <point x="32" y="0" type="line"/>
    </contour>
  </outline>
</glyph>
<glyph name="M" format="2">
  <advance width="450"/>
  <unicode hex="004D"/>
  <outline>
    <contour>
      <point x="8" y="708" type="line"/>
      <point x="170" y="708" type="line"/>
      <point x="222" y="420" type="line"/>
      <point x="276" y="708" type="line"/>
      <point x="442" y="708" type="line"/>
      <point x="442" y="0" type="line"/>
      <point x="276" y="0" type="line"/>
      <point x="276" y="189" type="line"/>
      <point x="297" y="451" type="line"/>
      <point x="254" y="202" type="line"/>
      <point x="195" y="202" type="line"/>
      <point x="153" y="451" type="line"/>
      <point x="174" y="189" type="line"/>
      <point x="174" y="0" type="line"/>
      <point x="8" y="0" type="line"/>
    </contour>
  </outline>
</glyph>
<glyph name="N" format="2">
  <advance width="450"/>
  <unicode hex="004E"/>
  <outline>
    <contour>
      <point x="16" y="708" type="line"/>
      <point x="162" y="708" type="line"/>
      <point x="255" y="438" type="line"/>
      <point x="255" y="708" type="line"/>
      <point x="434" y="708" type="line"/>
      <point x="434" y="0" type="line"/>
      <point x="288" y="0" type="line"/>
      <point x="195" y="290" type="line"/>
      <point x="195" y="0" type="line"/>
      <point x="16" y="0" type="line"/>
    </contour>
  </outline>
</glyph>
<glyph name="O" format="2">
  <advance width="450"/>
  <unicode hex="004F"/>
  <anchor x="300" y="876" name="AccentCenter"/>
  <outline>
    <contour>
      <point x="226" y="716" type="curve" smooth="yes"/>
      <point x="356" y="716"/>
      <point x="434" y="673"/>
      <point x="434" y="531" type="curve" smooth="yes"/>
      <point x="434" y="354"/>
      <point x="434" y="344"/>
      <point x="434" y="175" type="curve" smooth="yes"/>
      <point x="434" y="43"/>
      <point x="360" y="-7"/>
      <point x="226" y="-7" type="curve" smooth="yes"/>
      <point x="93" y="-7"/>
      <point x="16" y="43"/>
      <point x="16" y="177" type="curve" smooth="yes"/>
      <point x="16" y="346"/>
      <point x="16" y="356"/>
      <point x="16" y="533" type="curve" smooth="yes"/>
      <point x="16" y="674"/>
      <point x="95" y="716"/>
    </contour>
    <contour>
      <point x="225" y="556" type="curve" smooth="yes"/>
      <point x="208" y="556"/>
      <point x="196" y="545"/>
      <point x="196" y="528" type="curve" smooth="yes"/>
      <point x="196" y="357"/>
      <point x="196" y="351"/>
      <point x="196" y="183" type="curve" smooth="yes"/>
      <point x="196" y="164"/>
      <point x="203" y="153"/>
      <point x="225" y="153" type="curve" smooth="yes"/>
      <point x="247" y="153"/>
      <point x="254" y="164"/>
      <point x="254" y="183" type="curve" smooth="yes"/>
      <point x="254" y="352"/>
      <point x="254" y="365"/>
      <point x="254" y="528" type="curve" smooth="yes"/>
      <point x="254" y="545"/>
      <point x="243" y="556"/>
    </contour>
  </outline>
</glyph>
<glyph name="P" format="2">
  <advance width="450"/>
  <unicode hex="0050"/>
  <outline>
    <contour>
      <point x="196" y="548" type="line"/>
      <point x="196" y="376" type="line"/>
      <point x="213" y="376" type="line" smooth="yes"/>
      <point x="234" y="376"/>
      <point x="242" y="387"/>
      <point x="242" y="408" type="curve" smooth="yes"/>
      <point x="242" y="416"/>
      <point x="242" y="514"/>
      <point x="242" y="515" type="curve" smooth="yes"/>
      <point x="242" y="541"/>
      <point x="229" y="548"/>
      <point x="212" y="548" type="curve" smooth="yes"/>
    </contour>
    <contour>
      <point x="16" y="708" type="line"/>
      <point x="226" y="708" type="line" smooth="yes"/>
      <point x="368" y="708"/>
      <point x="434" y="630"/>
      <point x="434" y="516" type="curve" smooth="yes"/>
      <point x="434" y="501"/>
      <point x="434" y="417"/>
      <point x="434" y="416" type="curve" smooth="yes"/>
      <point x="434" y="298"/>
      <point x="375" y="216"/>
      <point x="223" y="216" type="curve" smooth="yes"/>
      <point x="196" y="216" type="line"/>
      <point x="196" y="0" type="line"/>
      <point x="16" y="0" type="line"/>
    </contour>
  </outline>
</glyph>
<glyph name="Q" format="2">
  <advance width="450"/>
  <unicode hex="0051"/>
  <outline>
    <contour>
      <point x="227" y="716" type="curve" smooth="yes"/>
      <point x="392" y="716"/>
      <point x="442" y="624"/>
      <point x="442" y="521" type="curve" smooth="yes"/>
      <point x="442" y="358"/>
      <point x="442" y="301"/>
      <point x="442" y="177" type="curve" smooth="yes"/>
      <point x="442" y="64"/>
      <point x="386" y="17"/>
      <point x="300" y="4" type="curve"/>
      <point x="300" y="-27"/>
      <point x="317" y="-42"/>
      <point x="345" y="-42" type="curve" smooth="yes"/>
      <point x="415" y="-42" type="line"/>
      <point x="428" y="-167" type="line"/>
      <point x="403" y="-176"/>
      <point x="362" y="-184"/>
      <point x="330" y="-184" type="curve" smooth="yes"/>
      <point x="196" y="-184"/>
      <point x="146" y="-91"/>
      <point x="146" y="5" type="curve"/>
      <point x="68" y="17"/>
      <point x="12" y="74"/>
      <point x="13" y="180" type="curve" smooth="yes"/>
      <point x="13" y="304"/>
      <point x="12" y="358"/>
      <point x="12" y="524" type="curve" smooth="yes"/>
      <point x="12" y="624"/>
      <point x="65" y="716"/>
    </contour>
    <contour>
      <point x="227" y="556" type="curve" smooth="yes"/>
      <point x="210" y="556"/>
      <point x="204" y="545"/>
      <point x="204" y="529" type="curve" smooth="yes"/>
      <point x="204" y="358"/>
      <point x="204" y="304"/>
      <point x="204" y="180" type="curve" smooth="yes"/>
      <point x="204" y="163"/>
      <point x="209" y="153"/>
      <point x="227" y="153" type="curve" smooth="yes"/>
      <point x="244" y="153"/>
      <point x="250" y="163"/>
      <point x="250" y="180" type="curve" smooth="yes"/>
      <point x="250" y="304"/>
      <point x="250" y="358"/>
      <point x="250" y="529" type="curve" smooth="yes"/>
      <point x="250" y="545"/>
      <point x="244" y="556"/>
    </contour>
  </outline>
</glyph>
<glyph name="R" format="2">
  <advance width="450"/>
  <unicode hex="0052"/>
  <outline>
    <contour>
      <point x="16" y="708" type="line"/>
      <point x="234" y="708" type="line" smooth="yes"/>
      <point x="377" y="708"/>
      <point x="450" y="629"/>
      <point x="450" y="501" type="curve" smooth="yes"/>
      <point x="450" y="500"/>
      <point x="450" y="451"/>
      <point x="450" y="425" type="curve" smooth="yes"/>
      <point x="450" y="334"/>
      <point x="390" y="276"/>
      <point x="356" y="259" type="curve"/>
      <point x="472" y="0" type="line"/>
      <point x="281" y="0" type="line"/>
      <point x="202" y="254" type="line"/>
      <point x="196" y="254" type="line"/>
      <point x="196" y="0" type="line"/>
      <point x="16" y="0" type="line"/>
    </contour>
    <contour>
      <point x="196" y="395" type="line"/>
      <point x="221" y="395" type="line" smooth="yes"/>
      <point x="244" y="395"/>
      <point x="258" y="412"/>
      <point x="258" y="437" type="curve" smooth="yes"/>
      <point x="258" y="463"/>
      <point x="258" y="492"/>
      <point x="258" y="511" type="curve" smooth="yes"/>
      <point x="258" y="537"/>
      <point x="245" y="550"/>
      <point x="221" y="550" type="curve" smooth="yes"/>
      <point x="196" y="550" type="line"/>
    </contour>
  </outline>
</glyph>
<glyph name="S" format="2">
  <advance width="450"/>
  <unicode hex="0053"/>
  <outline>
    <contour>
      <point x="248" y="716" type="curve" smooth="yes"/>
      <point x="321" y="716"/>
      <point x="379" y="698"/>
      <point x="430" y="664" type="curve"/>
      <point x="373" y="532" type="line"/>
      <point x="359" y="541"/>
      <point x="323" y="565"/>
      <point x="265" y="565" type="curve" smooth="yes"/>
      <point x="220" y="565"/>
      <point x="190" y="540"/>
      <point x="190" y="500" type="curve" smooth="yes"/>
      <point x="190" y="466"/>
      <point x="203" y="450"/>
      <point x="234" y="433" type="curve" smooth="yes"/>
      <point x="312" y="390" type="line" smooth="yes"/>
      <point x="410" y="336"/>
      <point x="441" y="280"/>
      <point x="441" y="194" type="curve" smooth="yes"/>
      <point x="441" y="60"/>
      <point x="346" y="-8"/>
      <point x="190" y="-8" type="curve" smooth="yes"/>
      <point x="108" y="-8"/>
      <point x="41" y="17"/>
      <point x="-2" y="50" type="curve"/>
      <point x="67" y="170" type="line"/>
      <point x="97" y="152"/>
      <point x="127" y="136"/>
      <point x="184" y="136" type="curve" smooth="yes"/>
      <point x="230" y="136"/>
      <point x="261" y="160"/>
      <point x="261" y="197" type="curve" smooth="yes"/>
      <point x="261" y="230"/>
      <point x="248" y="257"/>
      <point x="208" y="279" type="curve" smooth="yes"/>
      <point x="136" y="318" type="line" smooth="yes"/>
      <point x="34" y="373"/>
      <point x="10" y="418"/>
      <point x="10" y="525" type="curve" smooth="yes"/>
      <point x="10" y="662"/>
      <point x="118" y="716"/>
    </contour>
  </outline>
</glyph>
<glyph name="U" format="2">
  <advance width="450"/>
  <unicode hex="0055"/>
  <anchor x="225" y="880" name="AccentCenter"/>
  <outline>
    <contour>
      <point x="16" y="708" type="line"/>
      <point x="196" y="708" type="line"/>
      <point x="196" y="181" type="line" smooth="yes"/>
      <point x="196" y="164"/>
      <point x="207" y="153"/>
      <point x="225" y="153" type="curve" smooth="yes"/>
      <point x="244" y="153"/>
      <point x="254" y="164"/>
      <point x="254" y="181" type="curve" smooth="yes"/>
      <point x="254" y="708" type="line"/>
      <point x="434" y="708" type="line"/>
      <point x="434" y="180" type="line" smooth="yes"/>
      <point x="434" y="25"/>
      <point x="311" y="-7"/>
      <point x="225" y="-7" type="curve" smooth="yes"/>
      <point x="139" y="-7"/>
      <point x="16" y="25"/>
      <point x="16" y="180" type="curve" smooth="yes"/>
    </contour>
  </outline>
</glyph>
<glyph name="V" format="2">
  <advance width="450"/>
  <unicode hex="0056"/>
  <outline>
    <contour>
      <point x="5" y="708" type="line"/>
      <point x="163" y="708" type="line"/>
      <point x="224" y="242" type="line"/>
      <point x="288" y="708" type="line"/>
      <point x="445" y="708" type="line"/>
      <point x="317" y="0" type="line"/>
      <point x="132" y="0" type="line"/>
    </contour>
  </outline>
</glyph>
<glyph name="W" format="2">
  <advance width="450"/>
  <unicode hex="0057"/>
  <outline>
    <contour>
      <point x="-2" y="708" type="line"/>
      <point x="133" y="708" type="line"/>
      <point x="140" y="275" type="line"/>
      <point x="180" y="552" type="line"/>
      <point x="286" y="552" type="line"/>
      <point x="322" y="275" type="line"/>
      <point x="308" y="708" type="line"/>
      <point x="452" y="708" type="line"/>
      <point x="415" y="0" type="line"/>
      <point x="273" y="0" type="line"/>
      <point x="233" y="282" type="line"/>
      <point x="178" y="0" type="line"/>
      <point x="32" y="0" type="line"/>
    </contour>
  </outline>
</glyph>
<glyph name="X" format="2">
  <advance width="450"/>
  <unicode hex="0058"/>
  <outline>
    <contour>
      <point x="-2" y="708" type="line"/>
      <point x="186" y="708" type="line"/>
      <point x="225" y="473" type="line"/>
      <point x="264" y="708" type="line"/>
      <point x="452" y="708" type="line"/>
      <point x="307" y="354" type="line"/>
      <point x="452" y="0" type="line"/>
      <point x="264" y="0" type="line"/>
      <point x="225" y="236" type="line"/>
      <point x="186" y="0" type="line"/>
      <point x="-2" y="0" type="line"/>
      <point x="136" y="354" type="line"/>
    </contour>
  </outline>
</glyph>
<glyph name="a" format="2">
  <advance width="450"/>
  <unicode hex="0061"/>
  <anchor x="283" y="687" name="AccentCenter"/>
  <anchor x="281" y="687" name="Ring"/>
  <outline>
    <contour>
      <point x="177" y="528" type="curve" smooth="yes"/>
      <point x="337" y="528"/>
      <point x="409" y="452"/>
      <point x="409" y="326" type="curve" smooth="yes"/>
      <point x="409" y="130" type="line"/>
      <point x="409" y="130"/>
      <point x="446" y="130"/>
      <point x="446" y="130" type="curve"/>
      <point x="446" y="0" type="line"/>
      <point x="446" y="0"/>
      <point x="235" y="0"/>
      <point x="235" y="0" type="curve" smooth="yes"/>
      <point x="235" y="0"/>
      <point x="235" y="45"/>
      <point x="235" y="45" type="curve"/>
      <point x="212" y="-1"/>
      <point x="164" y="-8"/>
      <point x="125" y="-8" type="curve" smooth="yes"/>
      <point x="42" y="-8"/>
      <point x="3" y="56"/>
      <point x="3" y="147" type="curve" smooth="yes"/>
      <point x="3" y="246"/>
      <point x="53" y="307"/>
      <point x="173" y="307" type="curve" smooth="yes"/>
      <point x="235" y="307" type="line"/>
      <point x="235" y="330" type="line" smooth="yes"/>
      <point x="235" y="367"/>
      <point x="213" y="402"/>
      <point x="163" y="402" type="curve" smooth="yes"/>
      <point x="122" y="402"/>
      <point x="100" y="396"/>
      <point x="73" y="388" type="curve"/>
      <point x="39" y="508" type="line"/>
      <point x="70" y="517"/>
      <point x="113" y="528"/>
    </contour>
    <contour>
      <point x="235" y="196" type="line"/>
      <point x="214" y="196" type="line" smooth="yes"/>
      <point x="194" y="196"/>
      <point x="185" y="180"/>
      <point x="185" y="151" type="curve" smooth="yes"/>
      <point x="185" y="121"/>
      <point x="191" y="100"/>
      <point x="213" y="100" type="curve" smooth="yes"/>
      <point x="224" y="100"/>
      <point x="232" y="105"/>
      <point x="235" y="113" type="curve"/>
    </contour>
  </outline>
</glyph>
<glyph name="b" format="2">
  <advance width="450"/>
  <unicode hex="0062"/>
  <outline>
    <contour>
      <point x="20" y="724" type="line"/>
      <point x="208" y="724" type="line"/>
      <point x="208" y="484" type="line"/>
      <point x="212" y="490"/>
      <point x="220" y="528"/>
      <point x="299" y="528" type="curve" smooth="yes"/>
      <point x="383" y="528"/>
      <point x="435" y="483"/>
      <point x="435" y="364" type="curve" smooth="yes"/>
      <point x="435" y="318"/>
      <point x="435" y="205"/>
      <point x="435" y="160" type="curve" smooth="yes"/>
      <point x="435" y="54"/>
      <point x="386" y="-8"/>
      <point x="304" y="-8" type="curve" smooth="yes"/>
      <point x="238" y="-8"/>
      <point x="217" y="16"/>
      <point x="204" y="53" type="curve"/>
      <point x="170" y="0" type="line"/>
      <point x="20" y="0" type="line"/>
    </contour>
    <contour>
      <point x="230" y="393" type="curve" smooth="yes"/>
      <point x="218" y="393"/>
      <point x="213" y="384"/>
      <point x="208" y="369" type="curve"/>
      <point x="208" y="150" type="line"/>
      <point x="212" y="137"/>
      <point x="221" y="131"/>
      <point x="232" y="131" type="curve" smooth="yes"/>
      <point x="242" y="131"/>
      <point x="247" y="137"/>
      <point x="247" y="150" type="curve" smooth="yes"/>
      <point x="247" y="205"/>
      <point x="247" y="321"/>
      <point x="247" y="375" type="curve" smooth="yes"/>
      <point x="247" y="387"/>
      <point x="241" y="393"/>
    </contour>
  </outline>
</glyph>
<glyph name="c" format="2">
  <advance width="450"/>
  <unicode hex="0063"/>
  <outline>
    <contour>
      <point x="243" y="528" type="curve" smooth="yes"/>
      <point x="339" y="528"/>
      <point x="382" y="505"/>
      <point x="424" y="475" type="curve"/>
      <point x="352" y="354" type="line"/>
      <point x="337" y="363"/>
      <point x="324" y="381"/>
      <point x="282" y="381" type="curve" smooth="yes"/>
      <point x="227" y="381"/>
      <point x="215" y="339"/>
      <point x="215" y="315" type="curve" smooth="yes"/>
      <point x="215" y="303"/>
      <point x="215" y="225"/>
      <point x="215" y="213" type="curve" smooth="yes"/>
      <point x="215" y="176"/>
      <point x="237" y="140"/>
      <point x="283" y="140" type="curve" smooth="yes"/>
      <point x="327" y="140"/>
      <point x="348" y="159"/>
      <point x="371" y="176" type="curve"/>
      <point x="436" y="58" type="line"/>
      <point x="388" y="19"/>
      <point x="326" y="-8"/>
      <point x="243" y="-8" type="curve" smooth="yes"/>
      <point x="58" y="-8"/>
      <point x="22" y="74"/>
      <point x="22" y="196" type="curve" smooth="yes"/>
      <point x="22" y="262"/>
      <point x="22" y="264"/>
      <point x="22" y="332" type="curve" smooth="yes"/>
      <point x="22" y="430"/>
      <point x="82" y="528"/>
    </contour>
  </outline>
</glyph>
<glyph name="d" format="2">
  <advance width="450"/>
  <unicode hex="0064"/>
  <outline>
    <contour>
      <point x="247" y="724" type="line"/>
      <point x="435" y="724" type="line"/>
      <point x="435" y="0" type="line"/>
      <point x="285" y="0" type="line"/>
      <point x="251" y="53" type="line"/>
      <point x="238" y="16"/>
      <point x="217" y="-8"/>
      <point x="151" y="-8" type="curve" smooth="yes"/>
      <point x="69" y="-8"/>
      <point x="20" y="54"/>
      <point x="20" y="160" type="curve" smooth="yes"/>
      <point x="20" y="205"/>
      <point x="20" y="318"/>
      <point x="20" y="364" type="curve" smooth="yes"/>
      <point x="20" y="483"/>
      <point x="72" y="528"/>
      <point x="156" y="528" type="curve" smooth="yes"/>
      <point x="227" y="528"/>
      <point x="243" y="490"/>
      <point x="247" y="484" type="curve"/>
    </contour>
    <contour>
      <point x="222" y="393" type="curve" smooth="yes"/>
      <point x="209" y="393"/>
      <point x="201" y="386"/>
      <point x="201" y="369" type="curve" smooth="yes"/>
      <point x="201" y="315"/>
      <point x="201" y="207"/>
      <point x="201" y="152" type="curve" smooth="yes"/>
      <point x="201" y="139"/>
      <point x="211" y="131"/>
      <point x="223" y="131" type="curve" smooth="yes"/>
      <point x="236" y="131"/>
      <point x="243" y="138"/>
      <point x="247" y="151" type="curve"/>
      <point x="247" y="369" type="line"/>
      <point x="242" y="384"/>
      <point x="234" y="393"/>
    </contour>
  </outline>
</glyph>
<glyph name="e" format="2">
  <advance width="450"/>
  <unicode hex="0065"/>
  <anchor x="316" y="687" name="AccentCenter"/>
  <outline>
    <contour>
      <point x="224" y="528" type="curve" smooth="yes"/>
      <point x="373" y="528"/>
      <point x="430" y="438"/>
      <point x="432" y="341" type="curve" smooth="yes"/>
      <point x="432" y="281"/>
      <point x="432" y="288"/>
      <point x="432" y="286" type="curve" smooth="yes"/>
      <point x="432" y="259"/>
      <point x="428" y="229"/>
      <point x="422" y="212" type="curve"/>
      <point x="200" y="212" type="line"/>
      <point x="200" y="211"/>
      <point x="200" y="198"/>
      <point x="200" y="198" type="curve" smooth="yes"/>
      <point x="200" y="153"/>
      <point x="215" y="124"/>
      <point x="268" y="124" type="curve" smooth="yes"/>
      <point x="335" y="124"/>
      <point x="368" y="148"/>
      <point x="390" y="160" type="curve"/>
      <point x="438" y="54" type="line"/>
      <point x="387" y="21"/>
      <point x="334" y="-8"/>
      <point x="225" y="-8" type="curve" smooth="yes"/>
      <point x="56" y="-8"/>
      <point x="16" y="125"/>
      <point x="16" y="209" type="curve" smooth="yes"/>
      <point x="16" y="224"/>
      <point x="16" y="256"/>
      <point x="16" y="346" type="curve" smooth="yes"/>
      <point x="18" y="433"/>
      <point x="61" y="528"/>
    </contour>
    <contour>
      <point x="229" y="399" type="curve" smooth="yes"/>
      <point x="203" y="399"/>
      <point x="200" y="378"/>
      <point x="200" y="362" type="curve" smooth="yes"/>
      <point x="200" y="304"/>
      <point x="200" y="311"/>
      <point x="200" y="310" type="curve"/>
      <point x="257" y="310" type="line"/>
      <point x="257" y="362" type="line" smooth="yes"/>
      <point x="257" y="378"/>
      <point x="253" y="399"/>
    </contour>
  </outline>
</glyph>
<glyph name="f" format="2">
  <advance width="450"/>
  <unicode hex="0066"/>
  <outline>
    <contour>
      <point x="288" y="780" type="curve" smooth="yes"/>
      <point x="354" y="780"/>
      <point x="409" y="768"/>
      <point x="441" y="759" type="curve"/>
      <point x="415" y="629" type="line"/>
      <point x="403" y="632"/>
      <point x="382" y="639"/>
      <point x="356" y="639" type="curve" smooth="yes"/>
      <point x="330" y="639"/>
      <point x="296" y="629"/>
      <point x="296" y="574" type="curve" smooth="yes"/>
      <point x="296" y="520" type="line"/>
      <point x="400" y="520" type="line"/>
      <point x="400" y="370" type="line"/>
      <point x="296" y="370" type="line"/>
      <point x="296" y="0" type="line"/>
      <point x="104" y="0" type="line"/>
      <point x="104" y="370" type="line"/>
      <point x="19" y="370" type="line"/>
      <point x="19" y="520" type="line"/>
      <point x="104" y="520" type="line"/>
      <point x="104" y="596" type="line" smooth="yes"/>
      <point x="104" y="726"/>
      <point x="174" y="780"/>
    </contour>
  </outline>
</glyph>
<glyph name="g" format="2">
  <advance width="450"/>
  <unicode hex="0067"/>
  <outline>
    <contour>
      <point x="200" y="528" type="curve" smooth="yes"/>
      <point x="272" y="528"/>
      <point x="317" y="507"/>
      <point x="341" y="488" type="curve"/>
      <point x="429" y="520" type="line"/>
      <point x="446" y="520" type="line"/>
      <point x="445" y="379" type="line"/>
      <point x="396" y="379" type="line"/>
      <point x="396" y="378"/>
      <point x="396" y="364"/>
      <point x="396" y="364" type="curve" smooth="yes"/>
      <point x="396" y="364"/>
      <point x="396" y="338"/>
      <point x="396" y="309" type="curve" smooth="yes"/>
      <point x="396" y="237"/>
      <point x="323" y="179"/>
      <point x="231" y="179" type="curve" smooth="yes"/>
      <point x="231" y="179"/>
      <point x="218" y="179"/>
      <point x="218" y="179" type="curve"/>
      <point x="181" y="138" type="line"/>
      <point x="291" y="138" type="line" smooth="yes"/>
      <point x="381" y="138"/>
      <point x="442" y="88"/>
      <point x="442" y="-1" type="curve" smooth="yes"/>
      <point x="442" y="-2"/>
      <point x="442" y="-22"/>
      <point x="442" y="-34" type="curve" smooth="yes"/>
      <point x="442" y="-163"/>
      <point x="345" y="-192"/>
      <point x="215" y="-192" type="curve" smooth="yes"/>
      <point x="132" y="-192"/>
      <point x="69" y="-174"/>
      <point x="9" y="-138" type="curve"/>
      <point x="9" y="-60" type="line"/>
      <point x="62" y="29" type="line"/>
      <point x="9" y="29" type="line"/>
      <point x="9" y="122" type="line"/>
      <point x="89" y="208" type="line"/>
      <point x="56" y="221"/>
      <point x="11" y="258"/>
      <point x="11" y="325" type="curve" smooth="yes"/>
      <point x="11" y="354"/>
      <point x="11" y="355"/>
      <point x="11" y="380" type="curve" smooth="yes"/>
      <point x="12" y="472"/>
      <point x="81" y="528"/>
    </contour>
    <contour>
      <point x="209" y="29" type="line"/>
      <point x="209" y="29"/>
      <point x="171" y="-60"/>
      <point x="171" y="-60" type="curve"/>
      <point x="181" y="-65"/>
      <point x="197" y="-71"/>
      <point x="221" y="-71" type="curve" smooth="yes"/>
      <point x="253" y="-71"/>
      <point x="266" y="-54"/>
      <point x="266" y="-34" type="curve" smooth="yes"/>
      <point x="266" y="-23"/>
      <point x="266" y="-7"/>
      <point x="266" y="-6" type="curve" smooth="yes"/>
      <point x="266" y="18"/>
      <point x="249" y="29"/>
      <point x="230" y="29" type="curve" smooth="yes"/>
    </contour>
    <contour>
      <point x="203" y="409" type="curve" smooth="yes"/>
      <point x="194" y="409"/>
      <point x="187" y="403"/>
      <point x="187" y="393" type="curve" smooth="yes"/>
      <point x="187" y="393"/>
      <point x="187" y="340"/>
      <point x="187" y="311" type="curve" smooth="yes"/>
      <point x="187" y="304"/>
      <point x="194" y="298"/>
      <point x="203" y="298" type="curve" smooth="yes"/>
      <point x="212" y="298"/>
      <point x="220" y="304"/>
      <point x="220" y="311" type="curve" smooth="yes"/>
      <point x="220" y="340"/>
      <point x="220" y="364"/>
      <point x="220" y="393" type="curve" smooth="yes"/>
      <point x="220" y="403"/>
      <point x="213" y="409"/>
    </contour>
  </outline>
</glyph>
<glyph name="h" format="2">
  <advance width="450"/>
  <unicode hex="0068"/>
  <outline>
    <contour>
      <point x="21" y="708" type="line"/>
      <point x="209" y="708" type="line"/>
      <point x="209" y="459" type="line"/>
      <point x="221" y="490"/>
      <point x="260" y="528"/>
      <point x="328" y="528" type="curve" smooth="yes"/>
      <point x="427" y="528"/>
      <point x="446" y="475"/>
      <point x="446" y="384" type="curve" smooth="yes"/>
      <point x="446" y="0" type="line"/>
      <point x="264" y="0" type="line"/>
      <point x="264" y="347" type="line" smooth="yes"/>
      <point x="264" y="363"/>
      <point x="259" y="370"/>
      <point x="243" y="370" type="curve" smooth="yes"/>
      <point x="226" y="370"/>
      <point x="214" y="359"/>
      <point x="209" y="350" type="curve"/>
      <point x="209" y="0" type="line"/>
      <point x="21" y="0" type="line"/>
    </contour>
  </outline>
</glyph>
<glyph name="i" format="2">
  <advance width="450"/>
  <unicode hex="0069"/>
  <outline>
    <contour>
      <point x="240" y="743" type="curve" smooth="yes"/>
      <point x="293" y="743"/>
      <point x="337" y="708"/>
      <point x="337" y="646" type="curve" smooth="yes"/>
      <point x="337" y="588"/>
      <point x="293" y="549"/>
      <point x="240" y="549" type="curve" smooth="yes"/>
      <point x="187" y="549"/>
      <point x="143" y="588"/>
      <point x="143" y="646" type="curve" smooth="yes"/>
      <point x="143" y="708"/>
      <point x="187" y="743"/>
    </contour>
    <component base="dotlessi" xOffset="6"/>
  </outline>
</glyph>
<glyph name="j" format="2">
  <advance width="450"/>
  <unicode hex="006A"/>
  <outline>
    <contour>
      <point x="315" y="742" type="curve" smooth="yes"/>
      <point x="371" y="742"/>
      <point x="413" y="708"/>
      <point x="413" y="645" type="curve" smooth="yes"/>
      <point x="413" y="587"/>
      <point x="371" y="548"/>
      <point x="315" y="548" type="curve" smooth="yes"/>
      <point x="264" y="548"/>
      <point x="219" y="582"/>
      <point x="219" y="645" type="curve" smooth="yes"/>
      <point x="219" y="708"/>
      <point x="264" y="742"/>
    </contour>
    <contour>
      <point x="50" y="520" type="line"/>
      <point x="409" y="520" type="line"/>
      <point x="409" y="19" type="line" smooth="yes"/>
      <point x="409" y="-125"/>
      <point x="314" y="-193"/>
      <point x="166" y="-193" type="curve" smooth="yes"/>
      <point x="85" y="-193"/>
      <point x="25" y="-176"/>
      <point x="-25" y="-153" type="curve"/>
      <point x="29" y="0" type="line"/>
      <point x="72" y="-20"/>
      <point x="96" y="-33"/>
      <point x="141" y="-33" type="curve" smooth="yes"/>
      <point x="199" y="-33"/>
      <point x="217" y="-5"/>
      <point x="217" y="29" type="curve" smooth="yes"/>
      <point x="217" y="360" type="line"/>
      <point x="50" y="360" type="line"/>
    </contour>
  </outline>
</glyph>
<glyph name="k" format="2">
  <advance width="450"/>
  <unicode hex="006B"/>
  <outline>
    <contour>
      <point x="20" y="708" type="line"/>
      <point x="200" y="708" type="line"/>
      <point x="200" y="360" type="line"/>
      <point x="211" y="360" type="line"/>
      <point x="275" y="519" type="line"/>
      <point x="463" y="519" type="line"/>
      <point x="349" y="275" type="line"/>
      <point x="477" y="0" type="line"/>
      <point x="281" y="0" type="line"/>
      <point x="211" y="185" type="line"/>
      <point x="200" y="185" type="line"/>
      <point x="200" y="0" type="line"/>
      <point x="20" y="0" type="line"/>
    </contour>
  </outline>
</glyph>
<glyph name="l" format="2">
  <advance width="450"/>
  <unicode hex="006C"/>
  <outline>
    <contour>
      <point x="16" y="724" type="line"/>
      <point x="316" y="724" type="line"/>
      <point x="316" y="150" type="line"/>
      <point x="434" y="150" type="line"/>
      <point x="434" y="0" type="line"/>
      <point x="124" y="0" type="line"/>
      <point x="124" y="574" type="line"/>
      <point x="16" y="574" type="line"/>
    </contour>
  </outline>
</glyph>
<glyph name="m" format="2">
  <advance width="450"/>
  <unicode hex="006D"/>
  <outline>
    <contour>
      <point x="12" y="520" type="line"/>
      <point x="89" y="520" type="line"/>
      <point x="133" y="448" type="line"/>
      <point x="144" y="494"/>
      <point x="165" y="528"/>
      <point x="219" y="528" type="curve" smooth="yes"/>
      <point x="268" y="528"/>
      <point x="282" y="491"/>
      <point x="282" y="445" type="curve"/>
      <point x="289" y="485"/>
      <point x="310" y="528"/>
      <point x="366" y="528" type="curve" smooth="yes"/>
      <point x="411" y="528"/>
      <point x="438" y="500"/>
      <point x="438" y="447" type="curve" smooth="yes"/>
      <point x="438" y="0" type="line"/>
      <point x="312" y="0" type="line"/>
      <point x="312" y="385" type="line" smooth="yes"/>
      <point x="312" y="391"/>
      <point x="308" y="394"/>
      <point x="303" y="394" type="curve" smooth="yes"/>
      <point x="297" y="394"/>
      <point x="289" y="391"/>
      <point x="286" y="382" type="curve"/>
      <point x="286" y="0" type="line"/>
      <point x="162" y="0" type="line"/>
      <point x="162" y="385" type="line" smooth="yes"/>
      <point x="162" y="390"/>
      <point x="160" y="394"/>
      <point x="154" y="394" type="curve" smooth="yes"/>
      <point x="147" y="394"/>
      <point x="140" y="390"/>
      <point x="136" y="382" type="curve"/>
      <point x="136" y="0" type="line"/>
      <point x="12" y="0" type="line"/>
    </contour>
  </outline>
</glyph>
<glyph name="n" format="2">
  <advance width="450"/>
  <unicode hex="006E"/>
  <anchor x="239" y="687" name="AccentCenter"/>
  <outline>
    <contour>
      <point x="20" y="520" type="line"/>
      <point x="186" y="520" type="line"/>
      <point x="208" y="451" type="line"/>
      <point x="220" y="482"/>
      <point x="259" y="528"/>
      <point x="327" y="528" type="curve" smooth="yes"/>
      <point x="426" y="528"/>
      <point x="434" y="475"/>
      <point x="434" y="384" type="curve" smooth="yes"/>
      <point x="434" y="0" type="line"/>
      <point x="252" y="0" type="line"/>
      <point x="252" y="347" type="line" smooth="yes"/>
      <point x="252" y="363"/>
      <point x="248" y="370"/>
      <point x="235" y="370" type="curve" smooth="yes"/>
      <point x="220" y="370"/>
      <point x="202" y="359"/>
      <point x="197" y="350" type="curve"/>
      <point x="197" y="0" type="line"/>
      <point x="20" y="0" type="line"/>
    </contour>
  </outline>
</glyph>
<glyph name="o" format="2">
  <advance width="450"/>
  <unicode hex="006F"/>
  <anchor x="230" y="686" name="AccentCenter"/>
  <outline>
    <contour>
      <point x="226" y="528" type="curve" smooth="yes"/>
      <point x="356" y="528"/>
      <point x="428" y="485"/>
      <point x="428" y="343" type="curve" smooth="yes"/>
      <point x="428" y="332"/>
      <point x="428" y="180"/>
      <point x="428" y="175" type="curve" smooth="yes"/>
      <point x="428" y="43"/>
      <point x="360" y="-7"/>
      <point x="226" y="-7" type="curve" smooth="yes"/>
      <point x="93" y="-7"/>
      <point x="22" y="43"/>
      <point x="22" y="177" type="curve" smooth="yes"/>
      <point x="22" y="182"/>
      <point x="22" y="332"/>
      <point x="22" y="345" type="curve" smooth="yes"/>
      <point x="22" y="486"/>
      <point x="95" y="528"/>
    </contour>
    <contour>
      <point x="225" y="368" type="curve" smooth="yes"/>
      <point x="205" y="368"/>
      <point x="198" y="357"/>
      <point x="198" y="340" type="curve" smooth="yes"/>
      <point x="198" y="329"/>
      <point x="198" y="191"/>
      <point x="198" y="183" type="curve" smooth="yes"/>
      <point x="198" y="164"/>
      <point x="203" y="153"/>
      <point x="225" y="153" type="curve" smooth="yes"/>
      <point x="246" y="153"/>
      <point x="252" y="164"/>
      <point x="252" y="183" type="curve" smooth="yes"/>
      <point x="252" y="332"/>
      <point x="252" y="189"/>
      <point x="252" y="340" type="curve" smooth="yes"/>
      <point x="252" y="357"/>
      <point x="246" y="368"/>
    </contour>
  </outline>
</glyph>
<glyph name="p" format="2">
  <advance width="450"/>
  <unicode hex="0070"/>
  <outline>
    <contour>
      <point x="20" y="520" type="line"/>
      <point x="170" y="520" type="line"/>
      <point x="204" y="467" type="line"/>
      <point x="217" y="504"/>
      <point x="238" y="528"/>
      <point x="304" y="528" type="curve" smooth="yes"/>
      <point x="386" y="528"/>
      <point x="435" y="466"/>
      <point x="435" y="360" type="curve" smooth="yes"/>
      <point x="435" y="315"/>
      <point x="435" y="202"/>
      <point x="435" y="156" type="curve" smooth="yes"/>
      <point x="435" y="37"/>
      <point x="383" y="-8"/>
      <point x="299" y="-8" type="curve" smooth="yes"/>
      <point x="228" y="-8"/>
      <point x="212" y="30"/>
      <point x="208" y="36" type="curve"/>
      <point x="208" y="-204" type="line"/>
      <point x="20" y="-204" type="line"/>
    </contour>
    <contour>
      <point x="232" y="389" type="curve" smooth="yes"/>
      <point x="219" y="389"/>
      <point x="212" y="382"/>
      <point x="208" y="369" type="curve"/>
      <point x="208" y="151" type="line"/>
      <point x="213" y="136"/>
      <point x="221" y="127"/>
      <point x="233" y="127" type="curve" smooth="yes"/>
      <point x="246" y="127"/>
      <point x="254" y="134"/>
      <point x="254" y="151" type="curve" smooth="yes"/>
      <point x="254" y="205"/>
      <point x="254" y="313"/>
      <point x="254" y="368" type="curve" smooth="yes"/>
      <point x="254" y="381"/>
      <point x="244" y="389"/>
    </contour>
  </outline>
</glyph>
<glyph name="q" format="2">
  <advance width="450"/>
  <unicode hex="0071"/>
  <outline>
    <contour>
      <point x="284" y="520" type="line"/>
      <point x="434" y="520" type="line"/>
      <point x="434" y="-204" type="line"/>
      <point x="246" y="-204" type="line"/>
      <point x="246" y="36" type="line"/>
      <point x="242" y="30"/>
      <point x="226" y="-8"/>
      <point x="155" y="-8" type="curve" smooth="yes"/>
      <point x="71" y="-8"/>
      <point x="20" y="37"/>
      <point x="20" y="156" type="curve" smooth="yes"/>
      <point x="20" y="202"/>
      <point x="20" y="315"/>
      <point x="20" y="360" type="curve" smooth="yes"/>
      <point x="20" y="466"/>
      <point x="68" y="528"/>
      <point x="150" y="528" type="curve" smooth="yes"/>
      <point x="216" y="528"/>
      <point x="237" y="504"/>
      <point x="250" y="467" type="curve"/>
    </contour>
    <contour>
      <point x="222" y="389" type="curve" smooth="yes"/>
      <point x="210" y="389"/>
      <point x="201" y="381"/>
      <point x="201" y="368" type="curve" smooth="yes"/>
      <point x="201" y="313"/>
      <point x="201" y="205"/>
      <point x="201" y="151" type="curve" smooth="yes"/>
      <point x="201" y="134"/>
      <point x="208" y="127"/>
      <point x="221" y="127" type="curve" smooth="yes"/>
      <point x="233" y="127"/>
      <point x="241" y="136"/>
      <point x="246" y="151" type="curve"/>
      <point x="246" y="369" type="line"/>
      <point x="242" y="382"/>
      <point x="235" y="389"/>
    </contour>
  </outline>
</glyph>
<glyph name="r" format="2">
  <advance width="450"/>
  <unicode hex="0072"/>
  <outline>
    <contour>
      <point x="153" y="520" type="line"/>
      <point x="175" y="410" type="line"/>
      <point x="194" y="469"/>
      <point x="239" y="528"/>
      <point x="326" y="528" type="curve" smooth="yes"/>
      <point x="362" y="528"/>
      <point x="386" y="523"/>
      <point x="430" y="509" type="curve"/>
      <point x="399" y="360" type="line"/>
      <point x="400" y="356"/>
      <point x="370" y="360"/>
      <point x="334" y="360" type="curve" smooth="yes"/>
      <point x="270" y="360"/>
      <point x="243" y="304"/>
      <point x="240" y="280" type="curve"/>
      <point x="240" y="0" type="line"/>
      <point x="48" y="0" type="line"/>
      <point x="48" y="284" type="line"/>
      <point x="-24" y="520" type="line"/>
    </contour>
  </outline>
</glyph>
<glyph name="s" format="2">
  <advance width="450"/>
  <unicode hex="0073"/>
  <outline>
    <contour>
      <point x="253" y="528" type="curve" smooth="yes"/>
      <point x="343" y="528"/>
      <point x="398" y="502"/>
      <point x="432" y="484" type="curve"/>
      <point x="384" y="364" type="line"/>
      <point x="345" y="384"/>
      <point x="310" y="397"/>
      <point x="261" y="397" type="curve" smooth="yes"/>
      <point x="211" y="397"/>
      <point x="202" y="383"/>
      <point x="202" y="367" type="curve" smooth="yes"/>
      <point x="202" y="345"/>
      <point x="217" y="334"/>
      <point x="251" y="328" type="curve" smooth="yes"/>
      <point x="287" y="322" type="line" smooth="yes"/>
      <point x="396" y="304"/>
      <point x="435" y="260"/>
      <point x="438" y="158" type="curve" smooth="yes"/>
      <point x="441" y="55"/>
      <point x="379" y="-8"/>
      <point x="214" y="-8" type="curve" smooth="yes"/>
      <point x="120" y="-8"/>
      <point x="53" y="11"/>
      <point x="6" y="39" type="curve"/>
      <point x="54" y="160" type="line"/>
      <point x="86" y="141"/>
      <point x="147" y="118"/>
      <point x="217" y="118" type="curve" smooth="yes"/>
      <point x="255" y="118"/>
      <point x="266" y="132"/>
      <point x="266" y="156" type="curve" smooth="yes"/>
      <point x="266" y="182"/>
      <point x="244" y="196"/>
      <point x="214" y="201" type="curve" smooth="yes"/>
      <point x="177" y="207" type="line" smooth="yes"/>
      <point x="72" y="224"/>
      <point x="31" y="267"/>
      <point x="30" y="357" type="curve" smooth="yes"/>
      <point x="30" y="460"/>
      <point x="76" y="528"/>
    </contour>
  </outline>
</glyph>
<glyph name="t" format="2">
  <advance width="450"/>
  <unicode hex="0074"/>
  <outline>
    <contour>
      <point x="100" y="614" type="line"/>
      <point x="292" y="687" type="line"/>
      <point x="292" y="520" type="line"/>
      <point x="416" y="520" type="line"/>
      <point x="416" y="370" type="line"/>
      <point x="292" y="370" type="line"/>
      <point x="292" y="177" type="line" smooth="yes"/>
      <point x="292" y="146"/>
      <point x="303" y="138"/>
      <point x="331" y="138" type="curve"/>
      <point x="356" y="138"/>
      <point x="387" y="147"/>
      <point x="414" y="158" type="curve"/>
      <point x="445" y="23" type="line"/>
      <point x="402" y="3"/>
      <point x="352" y="-8"/>
      <point x="280" y="-8" type="curve" smooth="yes"/>
      <point x="147" y="-8"/>
      <point x="100" y="59"/>
      <point x="100" y="206" type="curve" smooth="yes"/>
      <point x="100" y="370" type="line"/>
      <point x="5" y="370" type="line"/>
      <point x="5" y="520" type="line"/>
      <point x="100" y="520" type="line"/>
    </contour>
  </outline>
</glyph>
<glyph name="u" format="2">
  <advance width="450"/>
  <unicode hex="0075"/>
  <anchor x="233" y="687" name="AccentCenter"/>
  <outline>
    <contour>
      <point x="21" y="520" type="line"/>
      <point x="203" y="520" type="line"/>
      <point x="203" y="173" type="line" smooth="yes"/>
      <point x="203" y="157"/>
      <point x="208" y="150"/>
      <point x="224" y="150" type="curve" smooth="yes"/>
      <point x="241" y="150"/>
      <point x="253" y="161"/>
      <point x="258" y="170" type="curve"/>
      <point x="258" y="520" type="line"/>
      <point x="446" y="520" type="line"/>
      <point x="446" y="0" type="line"/>
      <point x="280" y="0" type="line"/>
      <point x="258" y="69" type="line"/>
      <point x="246" y="38"/>
      <point x="207" y="-8"/>
      <point x="139" y="-8" type="curve" smooth="yes"/>
      <point x="40" y="-8"/>
      <point x="21" y="45"/>
      <point x="21" y="136" type="curve" smooth="yes"/>
    </contour>
  </outline>
</glyph>
<glyph name="v" format="2">
  <advance width="450"/>
  <unicode hex="0076"/>
  <outline>
    <contour>
      <point x="0" y="520" type="line"/>
      <point x="177" y="520" type="line"/>
      <point x="228" y="125" type="line"/>
      <point x="273" y="520" type="line"/>
      <point x="450" y="520" type="line"/>
      <point x="352" y="0" type="line"/>
      <point x="104" y="0" type="line"/>
    </contour>
  </outline>
</glyph>
<glyph name="w" format="2">
  <advance width="450"/>
  <unicode hex="0077"/>
  <outline>
    <contour>
      <point x="-10" y="520" type="line"/>
      <point x="127" y="520" type="line"/>
      <point x="122" y="188" type="line"/>
      <point x="163" y="462" type="line"/>
      <point x="287" y="462" type="line"/>
      <point x="324" y="192" type="line"/>
      <point x="321" y="520" type="line"/>
      <point x="460" y="520" type="line"/>
      <point x="421" y="0" type="line"/>
      <point x="249" y="0" type="line"/>
      <point x="223" y="272" type="line"/>
      <point x="197" y="0" type="line"/>
      <point x="25" y="0" type="line"/>
    </contour>
  </outline>
</glyph>
<glyph name="x" format="2">
  <advance width="450"/>
  <unicode hex="0078"/>
  <outline>
    <contour>
      <point x="-5" y="520" type="line"/>
      <point x="165" y="520" type="line"/>
      <point x="227" y="352" type="line"/>
      <point x="289" y="520" type="line"/>
      <point x="455" y="520" type="line"/>
      <point x="324" y="260" type="line"/>
      <point x="455" y="0" type="line"/>
      <point x="289" y="0" type="line"/>
      <point x="227" y="169" type="line"/>
      <point x="165" y="0" type="line"/>
      <point x="-5" y="0" type="line"/>
      <point x="125" y="260" type="line"/>
    </contour>
  </outline>
</glyph>
<glyph name="y" format="2">
  <advance width="450"/>
  <unicode hex="0079"/>
  <anchor x="225" y="687" name="AccentCenter"/>
  <outline>
    <contour>
      <point x="-8" y="520" type="line"/>
      <point x="180" y="520" type="line"/>
      <point x="216" y="285" type="line"/>
      <point x="228" y="193" type="line"/>
      <point x="239" y="285" type="line"/>
      <point x="280" y="520" type="line"/>
      <point x="458" y="520" type="line"/>
      <point x="241" y="-191" type="line"/>
      <point x="53" y="-191" type="line"/>
      <point x="138" y="51" type="line"/>
    </contour>
  </outline>
</glyph>
<glyph name="z" format="2">
  <advance width="450"/>
  <unicode hex="007A"/>
  <outline>
    <contour>
      <point x="31" y="520" type="line"/>
      <point x="420" y="520" type="line"/>
      <point x="420" y="397" type="line"/>
      <point x="273" y="160" type="line"/>
      <point x="425" y="160" type="line"/>
      <point x="425" y="0" type="line"/>
      <point x="31" y="0" type="line"/>
      <point x="31" y="123" type="line"/>
      <point x="191" y="360" type="line"/>
      <point x="31" y="360" type="line"/>
    </contour>
  </outline>
</glyph>
<glyph name="braceleft" format="2">
  <advance width="450"/>
  <unicode hex="007B"/>
  <outline>
    <contour>
      <point x="287" y="800" type="curve"/>
      <point x="419" y="800" type="line"/>
      <point x="419" y="656" type="line"/>
      <point x="298" y="656" type="line"/>
      <point x="293" y="656"/>
      <point x="290" y="656"/>
      <point x="289" y="656" type="curve"/>
      <point x="321" y="434" type="line"/>
      <point x="321" y="383"/>
      <point x="282" y="366"/>
      <point x="251" y="364" type="curve"/>
      <point x="282" y="362"/>
      <point x="321" y="344"/>
      <point x="321" y="293" type="curve"/>
      <point x="289" y="71" type="line"/>
      <point x="290" y="71"/>
      <point x="293" y="71"/>
      <point x="298" y="71" type="curve"/>
      <point x="419" y="71" type="line"/>
      <point x="419" y="-73" type="line"/>
      <point x="287" y="-73" type="line"/>
      <point x="210" y="-73"/>
      <point x="141" y="-42"/>
      <point x="129" y="46" type="curve"/>
      <point x="164" y="289" type="line"/>
      <point x="159" y="289"/>
      <point x="156" y="289"/>
      <point x="149" y="289" type="curve"/>
      <point x="42" y="289" type="line"/>
      <point x="42" y="438" type="line"/>
      <point x="149" y="438" type="line"/>
      <point x="156" y="438"/>
      <point x="159" y="438"/>
      <point x="164" y="438" type="curve"/>
      <point x="129" y="681" type="line"/>
      <point x="141" y="769"/>
      <point x="210" y="800"/>
    </contour>
  </outline>
</glyph>
<glyph name="braceright" format="2">
  <advance width="450"/>
  <unicode hex="007D"/>
  <outline>
    <contour>
      <point x="163" y="800" type="line"/>
      <point x="240" y="800"/>
      <point x="309" y="769"/>
      <point x="321" y="681" type="curve"/>
      <point x="286" y="438" type="line"/>
      <point x="291" y="438"/>
      <point x="294" y="438"/>
      <point x="301" y="438" type="curve"/>
      <point x="408" y="438" type="line"/>
      <point x="408" y="289" type="line"/>
      <point x="301" y="289" type="line"/>
      <point x="294" y="289"/>
      <point x="291" y="289"/>
      <point x="286" y="289" type="curve"/>
      <point x="321" y="46" type="line"/>
      <point x="309" y="-42"/>
      <point x="240" y="-73"/>
      <point x="163" y="-73" type="curve"/>
      <point x="31" y="-73" type="line"/>
      <point x="31" y="71" type="line"/>
      <point x="152" y="71" type="line"/>
      <point x="157" y="71"/>
      <point x="160" y="71"/>
      <point x="161" y="71" type="curve"/>
      <point x="129" y="293" type="line"/>
      <point x="129" y="344"/>
      <point x="168" y="362"/>
      <point x="199" y="364" type="curve"/>
      <point x="168" y="366"/>
      <point x="129" y="383"/>
      <point x="129" y="434" type="curve"/>
      <point x="161" y="656" type="line"/>
      <point x="160" y="656"/>
      <point x="157" y="656"/>
      <point x="152" y="656" type="curve"/>
      <point x="31" y="656" type="line"/>
      <point x="31" y="800" type="line"/>
    </contour>
  </outline>
</glyph>
<glyph name="dotlessi" format="2">
  <advance width="450"/>
  <unicode hex="0131"/>
  <anchor x="223" y="687" name="AccentCenter"/>
  <outline>
    <contour>
      <point x="35" y="520" type="line"/>
      <point x="318" y="520" type="line"/>
      <point x="318" y="152" type="line"/>
      <point x="430" y="152" type="line"/>
      <point x="430" y="0" type="line"/>
      <point x="126" y="0" type="line"/>
      <point x="126" y="374" type="line"/>
      <point x="35" y="374" type="line"/>
    </contour>
  </outline>
</glyph>
<glyph name="a.ss01" format="2">
  <advance width="450"/>
  <outline>
    <contour>
      <point x="198" y="528" type="curve" smooth="yes"/>
      <point x="353" y="528"/>
      <point x="429" y="452"/>
      <point x="429" y="307" type="curve" smooth="yes"/>
      <point x="429" y="0" type="line"/>
      <point x="429" y="0"/>
      <point x="243" y="0"/>
      <point x="243" y="0" type="curve" smooth="yes"/>
      <point x="243" y="0"/>
      <point x="243" y="70"/>
      <point x="243" y="70" type="curve"/>
      <point x="231" y="24"/>
      <point x="197" y="-8"/>
      <point x="124" y="-8" type="curve" smooth="yes"/>
      <point x="32" y="-8"/>
      <point x="11" y="56"/>
      <point x="11" y="147" type="curve" smooth="yes"/>
      <point x="11" y="246"/>
      <point x="67" y="310"/>
      <point x="184" y="310" type="curve" smooth="yes"/>
      <point x="243" y="310" type="line"/>
      <point x="243" y="325" type="line" smooth="yes"/>
      <point x="243" y="371"/>
      <point x="220" y="399"/>
      <point x="164" y="399" type="curve" smooth="yes"/>
      <point x="123" y="399"/>
      <point x="90" y="389"/>
      <point x="70" y="382" type="curve"/>
      <point x="36" y="504" type="line"/>
      <point x="68" y="513"/>
      <point x="112" y="528"/>
    </contour>
    <contour>
      <point x="243" y="199" type="line"/>
      <point x="226" y="199" type="line" smooth="yes"/>
      <point x="202" y="199"/>
      <point x="191" y="188"/>
      <point x="191" y="159" type="curve" smooth="yes"/>
      <point x="191" y="132"/>
      <point x="202" y="117"/>
      <point x="220" y="117" type="curve" smooth="yes"/>
      <point x="233" y="117"/>
      <point x="237" y="120"/>
      <point x="243" y="125" type="curve"/>
    </contour>
  </outline>
</glyph>
<glyph name="r.ss01" format="2">
  <advance width="450"/>
  <outline>
    <contour>
      <point x="4" y="520" type="line"/>
      <point x="206" y="520" type="line"/>
      <point x="206" y="375" type="line"/>
      <point x="224" y="437"/>
      <point x="259" y="528"/>
      <point x="357" y="528" type="curve" smooth="yes"/>
      <point x="400" y="528"/>
      <point x="421" y="522"/>
      <point x="445" y="514" type="curve"/>
      <point x="408" y="357" type="line"/>
      <point x="394" y="361"/>
      <point x="380" y="366"/>
      <point x="348" y="366" type="curve" smooth="yes"/>
      <point x="291" y="366"/>
      <point x="274" y="305"/>
      <point x="257" y="246" type="curve"/>
      <point x="257" y="0" type="line"/>
      <point x="65" y="0" type="line"/>
      <point x="65" y="356" type="line"/>
      <point x="16" y="356" type="line"/>
    </contour>
  </outline>
</glyph>
